<svg width="24" height="23" viewBox="0 0 24 23" fill="none" xmlns="http://www.w3.org/2000/svg">
<path d="M7 17.2676C5.9 17.2676 5.01 18.1012 5.01 19.1199C5.01 20.1387 5.9 20.9722 7 20.9722C8.1 20.9722 9 20.1387 9 19.1199C9 18.1012 8.1 17.2676 7 17.2676ZM1 2.44919V4.30149H3L6.6 11.331L5.25 13.6001C5.09 13.8594 5 14.165 5 14.4892C5 15.5079 5.9 16.3415 7 16.3415H19V14.4892H7.42C7.28 14.4892 7.17 14.3873 7.17 14.2576L7.2 14.1465L8.1 12.6369H15.55C16.3 12.6369 16.96 12.2571 17.3 11.6829L20.88 5.6722C20.96 5.54254 21 5.38509 21 5.22764C21 4.71826 20.55 4.30149 20 4.30149H5.21L4.27 2.44919H1ZM17 17.2676C15.9 17.2676 15.01 18.1012 15.01 19.1199C15.01 20.1387 15.9 20.9722 17 20.9722C18.1 20.9722 19 20.1387 19 19.1199C19 18.1012 18.1 17.2676 17 17.2676Z" fill="black"/>
</svg>
